solid OpenSCAD_Model
  facet normal -1 0 0
    outer loop
      vertex 0 17.3 4.2999
      vertex 0 22.3 3.3
      vertex 0 17.3 3.3
    endloop
  endfacet
  facet normal -1 0 0
    outer loop
      vertex 0 22.3 3.3
      vertex 0 17.3 4.2999
      vertex 0 22.3 6.7998
    endloop
  endfacet
  facet normal -1 0 0
    outer loop
      vertex 0 17.3 5.7998
      vertex 0 22.3 6.7998
      vertex 0 17.3 4.2999
    endloop
  endfacet
  facet normal -1 0 0
    outer loop
      vertex 0 5 5.7998
      vertex 0 22.3 6.7998
      vertex 0 17.3 5.7998
    endloop
  endfacet
  facet normal -1 0 0
    outer loop
      vertex 0 5 5.7998
      vertex 0 0 6.7998
      vertex 0 22.3 6.7998
    endloop
  endfacet
  facet normal -1 0 0
    outer loop
      vertex 0 0 6.7998
      vertex 0 5 5.7998
      vertex 0 0 3.3
    endloop
  endfacet
  facet normal -1 0 0
    outer loop
      vertex 0 5 3.3
      vertex 0 17.3 3.3
      vertex 0 17.3 3.2999
    endloop
  endfacet
  facet normal -1 0 0
    outer loop
      vertex 0 5 3.3
      vertex 0 17.3 3.2999
      vertex 0 5 3.2999
    endloop
  endfacet
  facet normal -1 0 0
    outer loop
      vertex 0 17.3 3.3
      vertex 0 5 3.3
      vertex 0 17.3 4.2999
    endloop
  endfacet
  facet normal -1 0 0
    outer loop
      vertex 0 5 3.3
      vertex 0 5 4.2999
      vertex 0 17.3 4.2999
    endloop
  endfacet
  facet normal -1 0 0
    outer loop
      vertex 0 0 3.3
      vertex 0 5 4.2999
      vertex 0 5 3.3
    endloop
  endfacet
  facet normal -1 -0 0
    outer loop
      vertex 0 5 4.2999
      vertex 0 0 3.3
      vertex 0 5 5.7998
    endloop
  endfacet
  facet normal -0 0 1
    outer loop
      vertex 0 17.3 4.2999
      vertex 6 5 4.2999
      vertex 6 17.3 4.2999
    endloop
  endfacet
  facet normal 0 0 1
    outer loop
      vertex 6 5 4.2999
      vertex 0 17.3 4.2999
      vertex 0 5 4.2999
    endloop
  endfacet
  facet normal 0 0 1
    outer loop
      vertex 6 17.3 4.2999
      vertex 7 22.3 4.2999
      vertex 6 22.3 4.2999
    endloop
  endfacet
  facet normal 0 0 1
    outer loop
      vertex 7 22.3 4.2999
      vertex 6 17.3 4.2999
      vertex 7 0 4.2999
    endloop
  endfacet
  facet normal -0 0 1
    outer loop
      vertex 6 5 4.2999
      vertex 7 0 4.2999
      vertex 6 17.3 4.2999
    endloop
  endfacet
  facet normal 0 0 1
    outer loop
      vertex 7 0 4.2999
      vertex 6 5 4.2999
      vertex 6 0 4.2999
    endloop
  endfacet
  facet normal 1 0 0
    outer loop
      vertex 50 22.3 4.2998
      vertex 50 17.3 3.3
      vertex 50 22.3 3.3
    endloop
  endfacet
  facet normal 1 0 0
    outer loop
      vertex 50 17.3 3.3
      vertex 50 5 3.3
      vertex 50 17.3 3.2999
    endloop
  endfacet
  facet normal 1 0 0
    outer loop
      vertex 50 22.3 4.2998
      vertex 50 5 3.3
      vertex 50 17.3 3.3
    endloop
  endfacet
  facet normal 1 -0 0
    outer loop
      vertex 50 0 4.2998
      vertex 50 5 3.3
      vertex 50 22.3 4.2998
    endloop
  endfacet
  facet normal 1 0 0
    outer loop
      vertex 50 5 3.3
      vertex 50 0 4.2998
      vertex 50 0 3.3
    endloop
  endfacet
  facet normal 1 0 0
    outer loop
      vertex 50 17.3 3.2999
      vertex 50 5 3.3
      vertex 50 5 3.2999
    endloop
  endfacet
  facet normal 0 1 -0
    outer loop
      vertex 50 22.3 4.2998
      vertex 11 22.3 7.2998
      vertex 50.0001 22.3 7.2998
    endloop
  endfacet
  facet normal 0 1 -0
    outer loop
      vertex 50 22.3 3.3
      vertex 11 22.3 7.2998
      vertex 50 22.3 4.2998
    endloop
  endfacet
  facet normal 0 1 0
    outer loop
      vertex 50 22.3 4.2998
      vertex 50.0001 22.3 7.2998
      vertex 50.0001 22.3 4.2998
    endloop
  endfacet
  facet normal 0 1 -0
    outer loop
      vertex 6 22.3 4.2999
      vertex 0 22.3 6.7998
      vertex 6 22.3 6.7998
    endloop
  endfacet
  facet normal 0 1 0
    outer loop
      vertex 11 22.3 7.2998
      vertex 50 22.3 3.3
      vertex 7 22.3 4.2999
    endloop
  endfacet
  facet normal 0 1 0
    outer loop
      vertex 0 22.3 3.3
      vertex 7 22.3 4.2999
      vertex 50 22.3 3.3
    endloop
  endfacet
  facet normal 0 1 0
    outer loop
      vertex 6 22.3 4.2999
      vertex 0 22.3 3.3
      vertex 0 22.3 6.7998
    endloop
  endfacet
  facet normal 0 1 0
    outer loop
      vertex 7 22.3 4.2999
      vertex 0 22.3 3.3
      vertex 6 22.3 4.2999
    endloop
  endfacet
  facet normal 0 0 -1
    outer loop
      vertex 0 5 3.2999
      vertex 50 17.3 3.2999
      vertex 50 5 3.2999
    endloop
  endfacet
  facet normal -0 0 -1
    outer loop
      vertex 50 17.3 3.2999
      vertex 0 5 3.2999
      vertex 0 17.3 3.2999
    endloop
  endfacet
  facet normal 0 -1 0
    outer loop
      vertex 50 0 3.3
      vertex 11 0 7.2998
      vertex 7 0 4.2999
    endloop
  endfacet
  facet normal 0 -1 0
    outer loop
      vertex 11 0 7.2998
      vertex 50 0 4.2998
      vertex 50.0001 0 7.2998
    endloop
  endfacet
  facet normal 0 -1 -0
    outer loop
      vertex 50.0001 0 7.2998
      vertex 50 0 4.2998
      vertex 50.0001 0 4.2998
    endloop
  endfacet
  facet normal 0 -1 0
    outer loop
      vertex 0 0 6.7998
      vertex 6 0 4.2999
      vertex 6 0 6.7998
    endloop
  endfacet
  facet normal 0 -1 0
    outer loop
      vertex 0 0 3.3
      vertex 7 0 4.2999
      vertex 6 0 4.2999
    endloop
  endfacet
  facet normal 0 -1 0
    outer loop
      vertex 0 0 3.3
      vertex 6 0 4.2999
      vertex 0 0 6.7998
    endloop
  endfacet
  facet normal 0 -1 -0
    outer loop
      vertex 7 0 4.2999
      vertex 0 0 3.3
      vertex 50 0 3.3
    endloop
  endfacet
  facet normal 0 -1 0
    outer loop
      vertex 11 0 7.2998
      vertex 50 0 3.3
      vertex 50 0 4.2998
    endloop
  endfacet
  facet normal 0 0 -1
    outer loop
      vertex 50 0 4.2998
      vertex 50.0001 22.3 4.2998
      vertex 50.0001 0 4.2998
    endloop
  endfacet
  facet normal -0 0 -1
    outer loop
      vertex 50.0001 22.3 4.2998
      vertex 50 0 4.2998
      vertex 50 22.3 4.2998
    endloop
  endfacet
  facet normal -0.599987 0 0.80001
    outer loop
      vertex 7 22.3 4.2999
      vertex 11 0 7.2998
      vertex 11 22.3 7.2998
    endloop
  endfacet
  facet normal -0.599987 0 0.80001
    outer loop
      vertex 11 0 7.2998
      vertex 7 22.3 4.2999
      vertex 7 0 4.2999
    endloop
  endfacet
  facet normal 1 -0 0
    outer loop
      vertex 50.0001 0 7.2998
      vertex 50.0001 22.3 4.2998
      vertex 50.0001 22.3 7.2998
    endloop
  endfacet
  facet normal 1 0 0
    outer loop
      vertex 50.0001 22.3 4.2998
      vertex 50.0001 0 7.2998
      vertex 50.0001 0 4.2998
    endloop
  endfacet
  facet normal -0 0 1
    outer loop
      vertex 11 22.3 7.2998
      vertex 50.0001 0 7.2998
      vertex 50.0001 22.3 7.2998
    endloop
  endfacet
  facet normal 0 0 1
    outer loop
      vertex 50.0001 0 7.2998
      vertex 11 22.3 7.2998
      vertex 11 0 7.2998
    endloop
  endfacet
  facet normal -0 0 1
    outer loop
      vertex 0 22.3 6.7998
      vertex 6 0 6.7998
      vertex 6 22.3 6.7998
    endloop
  endfacet
  facet normal 0 0 1
    outer loop
      vertex 6 0 6.7998
      vertex 0 22.3 6.7998
      vertex 0 0 6.7998
    endloop
  endfacet
  facet normal 1 0 0
    outer loop
      vertex 6 22.3 6.7998
      vertex 6 17.3 5.7998
      vertex 6 22.3 4.2999
    endloop
  endfacet
  facet normal 1 0 0
    outer loop
      vertex 6 22.3 6.7998
      vertex 6 5 5.7998
      vertex 6 17.3 5.7998
    endloop
  endfacet
  facet normal 1 -0 0
    outer loop
      vertex 6 0 6.7998
      vertex 6 5 5.7998
      vertex 6 22.3 6.7998
    endloop
  endfacet
  facet normal 1 0 0
    outer loop
      vertex 6 0 4.2999
      vertex 6 5 5.7998
      vertex 6 0 6.7998
    endloop
  endfacet
  facet normal 1 0 0
    outer loop
      vertex 6 5 5.7998
      vertex 6 0 4.2999
      vertex 6 5 4.2999
    endloop
  endfacet
  facet normal 1 0 0
    outer loop
      vertex 6 22.3 4.2999
      vertex 6 17.3 5.7998
      vertex 6 17.3 4.2999
    endloop
  endfacet
  facet normal 0 0 -1
    outer loop
      vertex 0 5 5.7998
      vertex 6 17.3 5.7998
      vertex 6 5 5.7998
    endloop
  endfacet
  facet normal -0 0 -1
    outer loop
      vertex 6 17.3 5.7998
      vertex 0 5 5.7998
      vertex 0 17.3 5.7998
    endloop
  endfacet
  facet normal 0 -1 0
    outer loop
      vertex 0 17.3 4.2999
      vertex 6 17.3 5.7998
      vertex 0 17.3 5.7998
    endloop
  endfacet
  facet normal 0 -1 -0
    outer loop
      vertex 6 17.3 5.7998
      vertex 0 17.3 4.2999
      vertex 6 17.3 4.2999
    endloop
  endfacet
  facet normal 0 1 -0
    outer loop
      vertex 6 5 4.2999
      vertex 0 5 5.7998
      vertex 6 5 5.7998
    endloop
  endfacet
  facet normal 0 1 0
    outer loop
      vertex 0 5 5.7998
      vertex 6 5 4.2999
      vertex 0 5 4.2999
    endloop
  endfacet
  facet normal 0 -1 0
    outer loop
      vertex -67.5 14.9 1
      vertex 62.5 14.9 2.3999
      vertex -67.5 14.9 2.3999
    endloop
  endfacet
  facet normal 0 -1 -0
    outer loop
      vertex 62.5 14.9 2.3999
      vertex -67.5 14.9 1
      vertex 62.5 14.9 1
    endloop
  endfacet
  facet normal -0 0 1
    outer loop
      vertex -67.5 14.9 1
      vertex 62.5 10.4 1
      vertex 62.5 14.9 1
    endloop
  endfacet
  facet normal 0 0 1
    outer loop
      vertex 62.5 10.4 1
      vertex -67.5 14.9 1
      vertex -67.5 10.4 1
    endloop
  endfacet
  facet normal 0 1 -0
    outer loop
      vertex 62.5 10.4 1
      vertex -67.5 10.4 2.3999
      vertex 62.5 10.4 2.3999
    endloop
  endfacet
  facet normal 0 1 0
    outer loop
      vertex -67.5 10.4 2.3999
      vertex 62.5 10.4 1
      vertex -67.5 10.4 1
    endloop
  endfacet
  facet normal 0 -1 0
    outer loop
      vertex -67.5 17.3 3.3
      vertex 0 17.3 3.2999
      vertex 0 17.3 3.3
    endloop
  endfacet
  facet normal 0 -1 0
    outer loop
      vertex 62.5 17.3 2.3999
      vertex 0 17.3 3.2999
      vertex -67.5 17.3 2.3999
    endloop
  endfacet
  facet normal 0 -1 0
    outer loop
      vertex -67.5 17.3 2.3999
      vertex 0 17.3 3.2999
      vertex -67.5 17.3 3.3
    endloop
  endfacet
  facet normal 0 -1 0
    outer loop
      vertex 50 17.3 3.2999
      vertex 62.5 17.3 3.3
      vertex 50 17.3 3.3
    endloop
  endfacet
  facet normal 0 -1 0
    outer loop
      vertex 0 17.3 3.2999
      vertex 62.5 17.3 2.3999
      vertex 50 17.3 3.2999
    endloop
  endfacet
  facet normal 0 -1 0
    outer loop
      vertex 50 17.3 3.2999
      vertex 62.5 17.3 2.3999
      vertex 62.5 17.3 3.3
    endloop
  endfacet
  facet normal -0 0 1
    outer loop
      vertex -67.5 17.3 2.3999
      vertex 62.5 14.9 2.3999
      vertex 62.5 17.3 2.3999
    endloop
  endfacet
  facet normal 0 0 1
    outer loop
      vertex 62.5 14.9 2.3999
      vertex -67.5 17.3 2.3999
      vertex -67.5 14.9 2.3999
    endloop
  endfacet
  facet normal -0 0 1
    outer loop
      vertex -67.5 10.4 2.3999
      vertex 62.5 5 2.3999
      vertex 62.5 10.4 2.3999
    endloop
  endfacet
  facet normal 0 0 1
    outer loop
      vertex 62.5 5 2.3999
      vertex -67.5 10.4 2.3999
      vertex -67.5 5 2.3999
    endloop
  endfacet
  facet normal 0 1 0
    outer loop
      vertex 62.5 5 3.3
      vertex 50 5 3.2999
      vertex 50 5 3.3
    endloop
  endfacet
  facet normal 0 1 0
    outer loop
      vertex 50 5 3.2999
      vertex 62.5 5 2.3999
      vertex 0 5 3.2999
    endloop
  endfacet
  facet normal 0 1 -0
    outer loop
      vertex 62.5 5 2.3999
      vertex 50 5 3.2999
      vertex 62.5 5 3.3
    endloop
  endfacet
  facet normal 0 1 -0
    outer loop
      vertex 0 5 3.2999
      vertex -67.5 5 3.3
      vertex 0 5 3.3
    endloop
  endfacet
  facet normal 0 1 0
    outer loop
      vertex -67.5 5 2.3999
      vertex 0 5 3.2999
      vertex 62.5 5 2.3999
    endloop
  endfacet
  facet normal 0 1 0
    outer loop
      vertex 0 5 3.2999
      vertex -67.5 5 2.3999
      vertex -67.5 5 3.3
    endloop
  endfacet
  facet normal -1 0 0
    outer loop
      vertex -67.5 24.8 0
      vertex -67.5 17.3 2.3999
      vertex -67.5 24.8 3.3
    endloop
  endfacet
  facet normal -1 0 0
    outer loop
      vertex -67.5 24.8 0
      vertex -67.5 14.9 1
      vertex -67.5 17.3 2.3999
    endloop
  endfacet
  facet normal -1 0 0
    outer loop
      vertex -67.5 24.8 0
      vertex -67.5 10.4 1
      vertex -67.5 14.9 1
    endloop
  endfacet
  facet normal -1 0 0
    outer loop
      vertex -67.5 10.4 1
      vertex -67.5 5 2.3999
      vertex -67.5 10.4 2.3999
    endloop
  endfacet
  facet normal -1 0 0
    outer loop
      vertex -67.5 -2.5 0
      vertex -67.5 10.4 1
      vertex -67.5 24.8 0
    endloop
  endfacet
  facet normal -1 0 0
    outer loop
      vertex -67.5 -2.5 0
      vertex -67.5 5 2.3999
      vertex -67.5 10.4 1
    endloop
  endfacet
  facet normal -1 0 0
    outer loop
      vertex -67.5 -2.5 3.3
      vertex -67.5 5 2.3999
      vertex -67.5 -2.5 0
    endloop
  endfacet
  facet normal -1 0 0
    outer loop
      vertex -67.5 5 2.3999
      vertex -67.5 -2.5 3.3
      vertex -67.5 5 3.3
    endloop
  endfacet
  facet normal -1 -0 0
    outer loop
      vertex -67.5 24.8 3.3
      vertex -67.5 17.3 2.3999
      vertex -67.5 17.3 3.3
    endloop
  endfacet
  facet normal -1 -0 0
    outer loop
      vertex -67.5 17.3 2.3999
      vertex -67.5 14.9 1
      vertex -67.5 14.9 2.3999
    endloop
  endfacet
  facet normal 0 0 1
    outer loop
      vertex 0 5 3.3
      vertex -67.5 5 3.3
      vertex 0 0 3.3
    endloop
  endfacet
  facet normal 0 0 1
    outer loop
      vertex 50 0 3.3
      vertex 62.5 5 3.3
      vertex 50 5 3.3
    endloop
  endfacet
  facet normal 0 0 1
    outer loop
      vertex 62.5 5 3.3
      vertex 50 0 3.3
      vertex 62.5 -2.5 3.3
    endloop
  endfacet
  facet normal -0 0 1
    outer loop
      vertex 0 0 3.3
      vertex 62.5 -2.5 3.3
      vertex 50 0 3.3
    endloop
  endfacet
  facet normal 0 0 1
    outer loop
      vertex 0 0 3.3
      vertex -67.5 -2.5 3.3
      vertex 62.5 -2.5 3.3
    endloop
  endfacet
  facet normal 0 0 1
    outer loop
      vertex -67.5 -2.5 3.3
      vertex 0 0 3.3
      vertex -67.5 5 3.3
    endloop
  endfacet
  facet normal 0 0 1
    outer loop
      vertex 62.5 24.8 3.3
      vertex 50 22.3 3.3
      vertex 62.5 17.3 3.3
    endloop
  endfacet
  facet normal 0 0 1
    outer loop
      vertex 62.5 24.8 3.3
      vertex 0 22.3 3.3
      vertex 50 22.3 3.3
    endloop
  endfacet
  facet normal -0 0 1
    outer loop
      vertex -67.5 24.8 3.3
      vertex 0 22.3 3.3
      vertex 62.5 24.8 3.3
    endloop
  endfacet
  facet normal 0 0 1
    outer loop
      vertex -67.5 17.3 3.3
      vertex 0 22.3 3.3
      vertex -67.5 24.8 3.3
    endloop
  endfacet
  facet normal 0 0 1
    outer loop
      vertex 0 22.3 3.3
      vertex -67.5 17.3 3.3
      vertex 0 17.3 3.3
    endloop
  endfacet
  facet normal 0 0 1
    outer loop
      vertex 62.5 17.3 3.3
      vertex 50 22.3 3.3
      vertex 50 17.3 3.3
    endloop
  endfacet
  facet normal 1 0 0
    outer loop
      vertex 62.5 5 3.3
      vertex 62.5 -2.5 3.3
      vertex 62.5 5 2.3999
    endloop
  endfacet
  facet normal 1 0 0
    outer loop
      vertex 62.5 10.4 2.3999
      vertex 62.5 5 2.3999
      vertex 62.5 10.4 1
    endloop
  endfacet
  facet normal 1 0 0
    outer loop
      vertex 62.5 17.3 2.3999
      vertex 62.5 24.8 3.3
      vertex 62.5 17.3 3.3
    endloop
  endfacet
  facet normal 1 0 0
    outer loop
      vertex 62.5 24.8 3.3
      vertex 62.5 17.3 2.3999
      vertex 62.5 24.8 0
    endloop
  endfacet
  facet normal 1 0 0
    outer loop
      vertex 62.5 14.9 1
      vertex 62.5 17.3 2.3999
      vertex 62.5 14.9 2.3999
    endloop
  endfacet
  facet normal 1 0 0
    outer loop
      vertex 62.5 17.3 2.3999
      vertex 62.5 14.9 1
      vertex 62.5 24.8 0
    endloop
  endfacet
  facet normal 1 -0 0
    outer loop
      vertex 62.5 10.4 1
      vertex 62.5 24.8 0
      vertex 62.5 14.9 1
    endloop
  endfacet
  facet normal 1 0 0
    outer loop
      vertex 62.5 -2.5 0
      vertex 62.5 5 2.3999
      vertex 62.5 -2.5 3.3
    endloop
  endfacet
  facet normal 1 0 0
    outer loop
      vertex 62.5 10.4 1
      vertex 62.5 -2.5 0
      vertex 62.5 24.8 0
    endloop
  endfacet
  facet normal 1 0 0
    outer loop
      vertex 62.5 5 2.3999
      vertex 62.5 -2.5 0
      vertex 62.5 10.4 1
    endloop
  endfacet
  facet normal 0 1 -0
    outer loop
      vertex 62.5 24.8 0
      vertex -67.5 24.8 3.3
      vertex 62.5 24.8 3.3
    endloop
  endfacet
  facet normal 0 1 0
    outer loop
      vertex -67.5 24.8 3.3
      vertex 62.5 24.8 0
      vertex -67.5 24.8 0
    endloop
  endfacet
  facet normal 0 0 -1
    outer loop
      vertex -67.5 -2.5 0
      vertex 62.5 24.8 0
      vertex 62.5 -2.5 0
    endloop
  endfacet
  facet normal -0 0 -1
    outer loop
      vertex 62.5 24.8 0
      vertex -67.5 -2.5 0
      vertex -67.5 24.8 0
    endloop
  endfacet
  facet normal 0 -1 0
    outer loop
      vertex -67.5 -2.5 0
      vertex 62.5 -2.5 3.3
      vertex -67.5 -2.5 3.3
    endloop
  endfacet
  facet normal 0 -1 -0
    outer loop
      vertex 62.5 -2.5 3.3
      vertex -67.5 -2.5 0
      vertex 62.5 -2.5 0
    endloop
  endfacet
endsolid OpenSCAD_Model
